<?xml version="1.0" encoding="UTF-8" standalone="no"?>
<!DOCTYPE svg PUBLIC "-//W3C//DTD SVG 1.1//EN" "http://www.w3.org/Graphics/SVG/1.1/DTD/svg11.dtd">
<!-- Created with Vectornator (http://vectornator.io/) -->
<svg height="100%" stroke-miterlimit="10" style="fill-rule:nonzero;clip-rule:evenodd;stroke-linecap:round;stroke-linejoin:round;" version="1.1" viewBox="0 0 512 512" width="100%" xml:space="preserve" xmlns="http://www.w3.org/2000/svg" xmlns:vectornator="http://vectornator.io" xmlns:xlink="http://www.w3.org/1999/xlink">
<defs/>
<g id="Layer-1" vectornator:layerName="Layer 1">
<g opacity="1">
<path d="M220.75 33.25C160.526 33.0924 220.764 33.2587 40.0938 33.3125C25.1072 33.3125 12.9688 45.4509 12.9688 60.4375C12.9687 75.264 24.8595 87.2755 39.625 87.5312C35.9612 298.388 36.451 268.924 34.875 359.625C34.4227 385.658 33.9836 411.686 33.5312 437.719C33.4337 443.33 33.3163 448.951 33.2188 454.562C33.1847 456.521 33.159 458.479 33.125 460.438C33.1149 461.018 33.1038 461.607 33.0938 462.188C33.0932 462.22 33.0649 462.414 33.0938 462.469C34.1173 464.4 34.7793 466.553 36.1562 468.25C36.7229 468.949 37.8131 468.999 38.6562 469.312C39.4741 469.617 40.6213 469.485 41.5 469.5C41.9663 469.508 42.4087 469.523 42.875 469.531C43.3413 469.539 43.815 469.523 44.2812 469.531C44.7475 469.539 45.2212 469.554 45.6875 469.562C46.62 469.579 47.5362 469.609 48.4688 469.625C59.6589 469.819 70.8723 469.993 82.0625 470.188C125.773 470.947 169.478 471.749 213.188 472.562C274.785 473.709 336.371 474.854 397.969 476C412.798 476.276 427.639 476.568 442.469 476.844C445.09 476.893 447.691 476.92 450.312 476.969C455.404 477.063 459.96 477.599 464.562 474.531C465.618 473.828 466.551 473.032 467.406 472.094C469.308 470.009 470.581 467.418 471.125 464.656C471.547 462.517 471.428 459.922 471.469 457.75C471.488 456.703 471.512 455.672 471.531 454.625C471.58 452.008 471.639 449.399 471.688 446.781C472.107 424.271 472.573 401.76 473.031 379.25C474.725 296.014 476.412 212.763 478.312 129.531C478.731 111.209 479.16 92.8845 479.594 74.5625C479.668 71.4215 479.731 68.2971 479.812 65.1562C479.887 62.2716 480.063 59.4971 479.5 56.625C478.846 53.284 477.509 50.0918 475.531 47.3125C474.373 45.6839 473.082 44.2678 471.562 42.9688C468.347 40.2197 464.432 38.3913 460.281 37.625C458.065 37.2158 455.782 37.2458 453.531 37.1875C450.818 37.1172 448.088 37.039 445.375 36.9688C442.12 36.8845 438.88 36.803 435.625 36.7188C423.69 36.4097 411.75 36.0493 399.812 35.8125C386.248 35.5434 372.685 35.45 359.125 35C350.988 34.7299 342.827 34.3721 334.688 34.1875C319.501 33.8431 304.314 33.7541 289.125 33.625C266.338 33.4314 243.538 33.3097 220.75 33.25ZM434.188 84.1875C434.236 86.219 434.296 88.2498 434.344 90.2812C434.789 109.127 435.195 127.967 435.625 146.812C437.227 216.957 438.635 287.101 440.062 357.25C440.542 380.807 441.021 404.349 441.5 427.906C441.637 434.644 441.751 441.387 441.875 448.125C435.566 448.242 429.246 448.351 422.938 448.469C401.94 448.859 380.935 449.266 359.938 449.656C296.724 450.832 233.526 452.011 170.312 453.188C141.363 453.726 112.388 454.216 83.4375 454.719C73.6461 454.889 63.8539 455.049 54.0625 455.219C51.6955 455.26 49.3357 455.303 46.9688 455.344C46.9461 454.041 46.9289 452.741 46.9062 451.438C46.7769 443.996 46.6293 436.567 46.5 429.125C46.1136 406.886 45.7302 384.645 45.3438 362.406C43.7519 270.792 44.2713 301.005 40.5625 87.5625C213.009 87.6336 156.353 87.7765 214.25 87.625C248.975 87.5341 283.685 87.3836 318.406 86.9062C323.831 86.8317 329.264 86.8105 334.688 86.6875C345.541 86.4414 356.397 85.9139 367.25 85.625C381.896 85.2351 396.541 85.1605 411.188 84.7812C418.851 84.5828 426.524 84.386 434.188 84.1875Z" fill="#ce2e59" stroke="none"/>
</g>
<g opacity="1">
<path d="M356.438 130.5C354.515 130.319 352.57 130.517 350.438 130.625C348.023 130.748 345.602 130.846 343.188 130.969C329.307 131.675 315.412 132.388 301.531 133.094C262.302 135.088 223.073 137.099 183.844 139.094C172.887 139.651 141.921 141.224 132.188 141.719C131.963 137.399 128.469 133.938 124.094 133.938C119.573 133.938 115.938 137.604 115.938 142.125C115.927 143.146 117.169 142.53 115.906 143.156C115.601 143.308 115.91 143.816 115.906 144.156C115.896 145.177 115.886 146.198 115.875 147.219C115.831 151.415 115.837 155.616 115.75 159.812C115.496 172.073 114.868 184.331 114 196.562C113.621 201.9 113.025 207.234 112.531 212.562C112.15 216.682 111.557 220.776 111 224.875C110.602 227.805 110.244 230.762 109.812 233.688C109.293 237.214 108.63 240.705 108.031 244.219C107.025 250.122 105.987 256.011 104.938 261.906C103.238 271.454 101.36 281.015 99.8438 290.594C97.9461 302.585 96.2728 314.609 95.0312 326.688C94.7339 329.58 94.5667 332.507 94.3438 335.406C94.0729 338.928 93.7318 342.442 93.5312 345.969C93.3176 349.725 93.2007 353.491 93.0312 357.25C92.911 359.918 92.7736 362.58 92.7188 365.25C92.6708 367.584 92.6105 369.916 92.5625 372.25C92.5506 372.829 92.5431 373.421 92.5312 374C92.5298 374.07 92.4519 374.373 92.5 374.438C99.9813 384.518 106.519 395.404 114.969 404.688C116.384 406.242 119.085 405.544 121.156 405.906C122.262 406.1 123.434 406.042 124.562 406.062C126.822 406.103 129.085 406.148 131.344 406.188C146.433 406.452 161.543 406.231 176.625 405.75C215.868 404.498 255.093 402.576 294.312 400.75C308.195 400.104 322.057 399.397 335.938 398.719C340.766 398.483 345.609 398.267 350.438 398.031C352.706 397.92 355.258 397.908 357.531 397.656C360.592 397.317 363.588 396.449 366.312 395C368.899 393.624 371.22 391.795 373.156 389.594C374.443 388.13 375.501 386.566 376.406 384.844C377.195 383.342 377.79 381.786 378.25 380.156C379.382 376.149 379.099 372.948 378.906 369C378.818 367.185 378.745 365.378 378.656 363.562C378.39 358.117 378.11 352.664 377.844 347.219C375.33 295.788 372.834 244.363 370.219 192.938C369.542 179.627 368.864 166.311 368.188 153C368.095 151.185 367.999 149.378 367.906 147.562C367.875 146.957 367.843 146.355 367.812 145.75C367.729 144.103 367.748 142.227 367.438 140.625C367.005 138.397 366.01 136.296 364.5 134.594C363.808 133.814 363.047 133.152 362.188 132.562C360.24 131.227 358.36 130.681 356.438 130.5ZM132.281 142.562C132.572 142.577 132.865 142.579 133.156 142.594C137.381 142.809 141.619 143.004 145.844 143.219C159.121 143.894 172.379 144.575 185.656 145.25C225.489 147.275 265.324 149.318 305.156 151.344C316.623 151.927 328.096 152.479 339.562 153.062C340.884 153.13 342.21 153.214 343.531 153.281C343.382 156.216 343.212 159.159 343.062 162.094C342.478 173.59 341.897 185.067 341.312 196.562C339.559 231.048 337.874 265.542 336.188 300.031C335.389 316.367 334.58 332.726 333.781 349.062C333.764 349.407 333.736 349.749 333.719 350.094C331.446 349.983 329.179 349.861 326.906 349.75C308.198 348.835 289.461 347.92 270.75 347.062C238.167 345.569 205.601 344.072 173 343.031C166.794 342.833 160.583 342.867 154.375 342.812C154.228 340.802 154.123 338.792 153.969 336.781C153.71 333.423 153.532 330.038 153.188 326.688C152.125 316.352 150.687 306.087 149.156 295.812C148.099 288.712 146.79 281.629 145.531 274.562C143.835 265.034 142.126 255.509 140.5 245.969C139.801 241.869 139.013 237.802 138.406 233.688C137.545 227.843 136.73 221.96 136.031 216.094C135.614 212.589 135.357 209.046 135.031 205.531C134.21 196.66 133.58 187.774 133.125 178.875C132.656 169.698 132.47 160.5 132.375 151.312C132.354 149.27 132.334 147.23 132.312 145.188C132.309 144.847 132.316 144.497 132.312 144.156C132.31 143.889 132.291 143.471 132.281 142.562Z" fill="#17bebb" stroke="none"/>
</g>
</g>
</svg>
